<?xml version="1.0" encoding="UTF-8"?>
<svg version="1.1" viewBox="0 0 1024 1024" width="1024" height="1024" xmlns="http://www.w3.org/2000/svg">
<path transform="translate(414,451)" d="m0 0h27l18 3 20 6 16 7 14 9 5-2 15-9 21-8 21-5 10-1h23l24 4 21 7 23 12 15 11 14 12 15 15 9 11 12 16 12 19 5 9 17 6 13 7 13 11 11 14 8 16 5 16 2 11v25l-4 20-6 15-9 16-8 11-6 19-7 17-9 17-11 15-11 12-8 8-13 10-15 9-18 8-17 5-22 3h-27l-21-3-25-6-34-10-19-4-8-1h-29l-22 4-31 9-26 7-17 3-9 1h-31l-17-3-15-4-19-8-16-9-16-13-11-11-10-13-9-15-7-16-5-15-5-25-1-9v-31l3-26 6-27 11-33 16-33 10-17 14-20 8-10 12-14 12-12 11-9 15-11 18-10 19-7 16-4z" fill="#0B2420"/>
<path transform="translate(414,491)" d="m0 0h28l14 3 16 6 14 8 16 12 4 2h8l10-6 11-9 12-7 19-7 11-2h29l17 4 16 6 16 9 13 10 12 11 12 12 11 14 7 9v2l-19 9-12 8-11 9-3 3-4-1-7-7-15-10-16-7-11-3-7-1h-19l-15 3-14 5-12 7-11 9-11 13-10 19-4 13-2 13v19l3 18 6 17 9 17 12 16 11 12 17 17 8 7 12 12 8 7 10 10 8 7 5 6-14-3-42-12-23-5-21-2h-14l-20 2-27 6-40 12-24 4h-30l-15-3-16-6-14-8-10-8-6-5-9-11-7-10-8-17-5-19-2-17v-23l2-21 5-24 10-30 14-29 13-21 10-14 9-11 9-10 9-9 13-10 16-9 11-5 13-4z" fill="#88C890"/>
<path transform="translate(365,137)" d="m0 0h24l18 4 17 8 14 10 13 12 9 11 12 18 8 15 9 25 5 21 2 14v37l-3 18-6 18-8 16-9 12-8 9-14 11-14 7-14 4-6 1h-21l-16-3-15-6-16-10-12-11-10-10-11-15-10-18-8-19-6-21-3-17-1-12v-21l2-18 5-21 6-15 7-13 8-11 13-13 14-9 12-5z" fill="#0B2420"/>
<path transform="translate(637,137)" d="m0 0h12l14 2 14 5 11 6 10 8 10 10 10 15 8 17 6 19 3 17 1 14v15l-2 19-4 20-7 20-10 21-8 12-11 14-13 13-14 10-15 8-13 4-12 2h-18l-16-3-13-5-12-7-13-12-8-9-9-15-6-15-4-15-3-20v-31l3-22 5-19 7-19 8-16 10-15 8-10 8-9 11-9 10-7 17-8 16-4z" fill="#0B2420"/>
<path transform="translate(592,605)" d="m0 0h9l14 3 12 6 10 8 9 9 7 8 5 3 9 1 8-4 14-15 8-7 12-7 13-4 6-1h11l11 2 12 6 10 9 7 11 4 11 1 6v21l-3 12-6 14-10 14-9 10-7 8-10 10-8 7-11 11-8 7-8 8-8 7-9 9-8 7-10 9-5 2-11-9-11-11-8-7-9-9-8-7-8-8-8-7-17-16-17-17-10-14-8-16-4-15v-21l4-13 5-9 9-10 10-7 12-4z" fill="#88C890"/>
<path transform="translate(194,303)" d="m0 0h18l15 3 15 6 10 6 9 7 12 11 9 11 12 18 9 19 6 18 3 17v24l-4 18-5 12-6 10-9 10-8 7-10 6-15 5-5 1h-22l-14-3-13-5-15-9-13-11-12-12-11-15-9-17-7-19-4-18-1-10v-12l2-17 5-16 6-12 7-9 10-10 13-8 15-5z" fill="#0B2420"/>
<path transform="translate(808,303)" d="m0 0h20l15 4 14 7 11 9 9 11 8 16 4 14 2 14v18l-3 19-6 19-8 16-10 16-11 12-12 12-13 9-16 8-14 4-6 1h-20l-14-3-16-8-11-9-9-11-8-16-4-14-1-6v-26l3-17 7-21 8-16 10-16 12-14 9-9 14-10 19-9z" fill="#0B2420"/>
<path transform="translate(634,178)" d="m0 0h17l12 4 10 7 8 9 6 10 5 12 4 20 1 13v11l-3 24-4 15-8 18-10 16-12 13-10 8-10 6-13 4-12 1-12-2-14-7-10-10-8-14-5-16-2-11v-33l3-17 5-17 10-21 8-12 9-10 5-5 8-7 14-7z" fill="#89C991"/>
<path transform="translate(368,178)" d="m0 0h19l12 4 12 7 12 11 9 11 9 15 7 15 6 20 3 21v20l-3 19-5 14-5 10-7 9-7 7-12 6-7 2h-17l-13-4-10-6-11-9-8-9-10-15-8-16-5-15-4-20-1-12v-14l2-18 4-15 8-16 8-10 9-7 9-4z" fill="#89C991"/>
<path transform="translate(198,343)" d="m0 0h11l12 3 14 8 10 9 9 10 8 13 5 10 5 15 2 10v20l-4 13-7 10-8 6-11 4h-11l-13-4-11-6-11-9-10-11-8-13-6-13-4-13-2-12v-16l3-12 4-8 7-8 11-5z" fill="#89C991"/>
<path transform="translate(814,343)" d="m0 0h9l10 3 6 4 5 5 5 8 3 10 1 6v11l-3 18-6 16-6 12-8 11-9 10-11 8-12 6-8 2h-13l-10-3-9-7-7-10-3-9-1-6v-15l4-18 6-15 8-14 11-13 8-7 11-7 9-4z" fill="#89C991"/>
<path transform="translate(398,516)" d="m0 0h10l6 4 1 2v8l-5 7-22 14-13 11-9 8-7 8-8 8-4 2h-9l-5-5-1-6 4-11 10-14 11-12 10-8 10-7 17-8z" fill="#D7EFC2"/>
<path transform="translate(354,518)" d="m0 0 2 1-26 26v-3l12-13 8-8z" fill="#B5DEAC"/>
<path transform="translate(783,357)" d="m0 0 2 1-16 16v-3l11-12z" fill="#AEDBA8"/>
</svg>
